# xmcd CD database file
#
# Track frame offsets:
#	150
#	30339
#	66611
#	87956
#	108548
#	121310
#	152489
#	177676
#	207228
#	218543
#	228055
#	247124
#	271106
#	293678
#
# Disc length: 4328 seconds
#
# Revision: 0
# Processed by: cddbd v1.5PL3 Copyright (c) Steve Scherf et al.
# Submitted via: CDex 1.50beta9
#
DISCID=c210e60e
DTITLE=Garbarek, Jan - Officium
DYEAR=0152
DGENRE=Klassik
TTITLE0=Parce mihi domine
TTITLE1=Primo tempore
TTITLE2=Sanctus
TTITLE3=O salutaris hostia
TTITLE4=Precedentem sponsum
TTITLE5=Pulcherrima rosa
TTITLE6=Parce mihi domine
TTITLE7=Beata viscera
TTITLE8=De spineto nata rosa
TTITLE9=Credo
TTITLE10=Ave maria stella
TTITLE11=Virgo flagellatur
TTITLE12=Oratio Ieremiae
TTITLE13=Parce mihi domine
EXTD=YEAR: 0152
EXTT0=
EXTT1=
EXTT2=
EXTT3=
EXTT4=
EXTT5=
EXTT6=
EXTT7=
EXTT8=
EXTT9=
EXTT10=
EXTT11=
EXTT12=
EXTT13=
PLAYORDER=
